<svg width="200" height="200" viewBox="0 0 200 200" fill="none" xmlns="http://www.w3.org/2000/svg">
<g clip-path="url(#clip0_7_60)">
<path fill-rule="evenodd" clip-rule="evenodd" d="M99.9186 0C155.085 0 200 44.7518 200 99.9186C200 155.085 155.248 200 100.081 200C44.7518 200 0 155.248 0 100.081C0 73.5557 10.5777 48.0065 29.2921 29.2921C48.0065 10.5777 73.393 0 99.9186 0Z" fill="#009199"/>
<path d="M72.7046 51.2869V147.324H46.6554V75.2962H46.0277L25 87.85V65.7238L48.6954 51.2869H72.7046ZM131.708 149.992C123.862 150.149 116.015 148.109 109.268 144.029C102.677 139.792 97.6554 133.828 94.517 126.767C90.9077 118.136 89.1816 109.035 89.3385 99.6192C89.0247 90.3608 90.7508 81.1023 94.517 72.4715C97.6554 65.5669 102.677 59.6038 109.268 55.6808C116.172 51.7577 123.862 49.7177 131.708 50.0315C139.554 49.7177 147.4 51.7577 154.305 55.6808C160.739 59.6038 165.917 65.5669 169.055 72.4715C172.665 80.9454 174.548 90.0469 174.234 99.3054C174.548 108.564 172.665 117.979 169.055 126.453C165.917 133.515 160.895 139.635 154.305 143.715C147.4 148.109 139.711 150.149 131.708 149.992ZM131.708 128.807C136.259 128.807 139.868 126.453 142.849 121.745C145.674 117.038 147.086 109.662 147.086 99.4623C147.243 93.97 146.615 88.4777 145.046 83.2992C144.105 79.69 142.222 76.5515 139.554 74.0408C137.357 72.0008 134.532 70.9023 131.551 71.0592C126.843 71.0592 122.606 73.7269 120.566 77.9638C117.742 82.5146 116.329 89.7331 116.172 99.6192C116.015 105.268 116.643 110.761 118.055 116.253C118.997 119.862 120.88 123.158 123.548 125.825C125.745 127.708 128.569 128.807 131.708 128.807Z" fill="white"/>
</g>
<defs>
<clipPath id="clip0_7_60">
<rect width="200" height="200" fill="white"/>
</clipPath>
</defs>
</svg>
