<svg width="200" height="200" viewBox="0 0 200 200" fill="none" xmlns="http://www.w3.org/2000/svg">
<g clip-path="url(#clip0_7_66)">
<path fill-rule="evenodd" clip-rule="evenodd" d="M99.9186 0C155.085 0 200 44.7518 200 99.9186C200 155.085 155.248 200 100.081 200C44.7518 200 0 155.248 0 100.081C0 73.5557 10.5777 48.0065 29.2921 29.2921C48.0065 10.5777 73.393 0 99.9186 0Z" fill="#009199"/>
<path d="M78.7528 51.3376V149.669H51.9801V75.9619H51.4843L30 88.8524V66.046L54.1285 51.1723H78.7528V51.3376ZM94.9486 149.669V130.499L131.637 100.09C133.951 98.2725 136.099 96.4546 138.082 94.4714C139.735 92.8188 141.057 91.0009 142.049 89.0177C143.04 87.0345 143.536 84.8861 143.536 82.7377C143.536 80.424 143.04 78.2755 141.884 76.2924C140.892 74.4745 139.239 73.1524 137.421 72.1608C135.438 71.1692 133.125 70.6734 130.976 70.6734C128.662 70.6734 126.514 71.1692 124.531 72.1608C122.713 73.1524 121.226 74.6397 120.234 76.4576C119.077 78.6061 118.581 81.085 118.747 83.3987H92.9655C92.8002 77.1187 94.4529 70.8387 97.5929 65.5502C100.733 60.4271 105.36 56.4607 110.814 53.9818C117.094 51.1723 123.87 49.8502 130.811 50.0155C137.752 49.8502 144.858 51.007 151.304 53.6513C156.757 55.7997 161.385 59.6007 164.69 64.3934C167.83 69.0208 169.483 74.6397 169.483 80.424C169.483 84.225 168.656 88.1914 167.169 91.6619C165.02 96.2893 162.211 100.421 158.74 104.057C153.287 109.841 147.668 115.129 141.553 120.253L132.298 128.02V128.681H170.639V150L94.9486 149.669Z" fill="white"/>
</g>
<defs>
<clipPath id="clip0_7_66">
<rect width="200" height="200" fill="white"/>
</clipPath>
</defs>
</svg>
