<svg width="200" height="200" viewBox="0 0 200 200" fill="none" xmlns="http://www.w3.org/2000/svg">
<path d="M99.9609 0C155.234 0 200 44.7656 200 100C200 155.234 155.234 200 100 200C44.7656 200 0 155.234 0 100C0 73.4766 10.5469 48.0469 29.2969 29.2969C47.9687 10.5469 73.3594 0 99.8438 0H99.9609Z" fill="#009199"/>
<path d="M91.1659 134.383V113.31L131.406 50H165.744V113.31H177.28V134.383H165.744V150H139.746V134.383H91.1659ZM71.6007 50V150H44.449V75.0222H43.8722L22 88.0657V65.0399L46.6229 50H71.6007ZM140.367 78.1278H139.569L117.874 112.511V113.31H140.323V78.1278H140.367Z" fill="white"/>
</svg>
