<svg width="200" height="200" viewBox="0 0 200 200" fill="none" xmlns="http://www.w3.org/2000/svg">
<path d="M99.9609 0C155.234 0 200 44.7656 200 100C200 155.234 155.234 200 100 200C44.7656 200 0 155.234 0 100C0 73.4766 10.5469 48.0469 29.2969 29.2969C47.9687 10.5469 73.3594 0 99.8438 0H99.9609Z" fill="#009199"/>
<path d="M74.8983 50V148.602H48.1186V74.661H47.5678L26 87.5847V64.8729L50.2797 50.0424L74.8983 50ZM134.644 150C127.059 150 120.322 148.644 114.475 145.975C108.627 143.305 104.008 139.576 100.661 134.873C97.3136 130.169 95.6187 124.746 95.5339 118.602H121.508C121.636 122.034 122.949 124.746 125.492 126.78C128.034 128.771 131.085 129.788 134.602 129.788C137.356 129.788 139.729 129.195 141.847 128.008C143.924 126.822 145.534 125.169 146.763 123.008C147.949 120.847 148.542 118.39 148.5 115.508C148.542 112.627 147.949 110.127 146.763 107.966C145.576 105.805 143.924 104.153 141.847 103.008C139.729 101.822 137.356 101.229 134.602 101.229C131.763 101.229 129.178 101.949 126.763 103.305C124.347 104.661 122.61 106.568 121.466 108.941L98.0339 104.322L101.89 50H168.119V71.3559H123.839L121.89 93.1356H122.483C124.008 90.1695 126.678 87.6695 130.492 85.7203C134.263 83.7712 138.67 82.7542 143.67 82.7542C149.517 82.7542 154.771 84.1525 159.39 86.8644C164.008 89.6186 167.653 93.3898 170.322 98.178C172.992 102.966 174.305 108.517 174.305 114.746C174.347 121.61 172.695 127.712 169.39 133.008C166.127 138.305 161.508 142.458 155.576 145.466C149.644 148.475 142.653 150 134.644 150Z" fill="white"/>
</svg>
