<svg width="200" height="200" viewBox="0 0 200 200" fill="none" xmlns="http://www.w3.org/2000/svg">
<g clip-path="url(#clip0_7_33)">
<path fill-rule="evenodd" clip-rule="evenodd" d="M99.9186 0C155.085 0 200 44.7518 200 99.9186C200 155.085 155.248 200 100.081 200C44.7518 200 0 155.248 0 100.081C0 73.5557 10.5777 48.0065 29.2921 29.2921C48.0065 10.5777 73.393 0 99.9186 0Z" fill="#009199"/>
<path d="M51.5283 164.832V139.814L99.2131 100.357C102.067 98.0062 104.754 95.4876 107.44 92.9691C109.455 90.7863 111.302 88.4356 112.645 85.7492C113.821 83.2306 114.492 80.3762 114.492 77.5219C114.492 74.4996 113.821 71.6452 112.31 69.1266C110.966 66.776 108.952 64.929 106.601 63.7537C101.228 61.2352 95.0155 61.2352 89.6425 63.7537C87.2919 64.929 85.277 66.9439 84.1017 69.2946C82.7584 72.1489 82.0868 75.1712 82.0868 78.3614H49.0097C48.8418 70.1341 50.8566 62.0747 55.0542 55.1906C59.2518 48.6423 65.1285 43.4373 72.1805 40.2471C80.4078 36.5532 89.1388 34.8742 98.2056 35.0421C107.272 34.7063 116.339 36.3853 124.902 39.9113C131.954 42.7657 137.999 47.6349 142.364 53.8474C146.562 59.8919 148.745 67.2797 148.577 74.6675C148.577 79.7046 147.57 84.7417 145.555 89.2752C142.7 95.1518 139.006 100.693 134.473 105.394C127.421 112.95 120.033 119.834 112.142 126.382L100.221 136.456V137.296H150.088V165L51.5283 164.832Z" fill="white"/>
</g>
<defs>
<clipPath id="clip0_7_33">
<rect width="200" height="200" fill="white"/>
</clipPath>
</defs>
</svg>
