<svg width="200" height="200" viewBox="0 0 200 200" fill="none" xmlns="http://www.w3.org/2000/svg">
<g clip-path="url(#clip0_7_42)">
<path fill-rule="evenodd" clip-rule="evenodd" d="M99.9186 0C155.085 0 200 44.7518 200 99.9186C200 155.085 155.248 200 100.081 200C44.7518 200 0 155.248 0 100.081C0 73.5557 10.5777 48.0065 29.2921 29.2921C48.0065 10.5777 73.393 0 99.9186 0Z" fill="#009199"/>
<path d="M99.3606 164.953C90.166 165.126 81.1448 163.218 72.8175 159.748C65.5312 156.625 59.2858 151.768 54.6017 145.522C50.0911 139.451 47.8358 132.164 48.0093 124.704H82.5327C82.5327 127.133 83.4001 129.388 84.9614 131.297C86.5228 133.379 88.6046 134.766 91.0334 135.807C93.8091 136.848 96.7584 137.542 99.8811 137.369C102.657 137.369 105.606 136.848 108.208 135.634C110.464 134.593 112.372 133.032 113.76 130.95C115.148 128.868 115.842 126.439 115.668 124.01C115.668 121.582 114.974 119.153 113.413 117.245C111.678 115.163 109.423 113.601 106.994 112.734C103.871 111.52 100.575 110.999 97.1053 110.999H84.2675V87.2318H97.1053C100.228 87.2318 103.351 86.7113 106.127 85.4969C108.555 84.6295 110.637 82.8947 112.198 80.8128C113.586 78.9045 114.454 76.4757 114.28 74.047C114.28 71.7917 113.76 69.5364 112.545 67.4546C111.331 65.5462 109.423 63.9849 107.341 62.944C104.912 61.9031 102.31 61.2091 99.7076 61.3826C96.9318 61.3826 93.9826 61.9031 91.3804 63.1175C89.1251 64.1584 87.0432 65.7197 85.6554 67.8015C84.2675 69.7099 83.5736 72.1386 83.5736 74.5674H50.4381C50.2646 67.2811 52.5199 59.9947 56.857 54.0963C61.3676 48.0243 67.266 43.1668 74.2054 40.0441C82.1857 36.5744 90.8599 34.8395 99.5341 35.013C108.035 34.8395 116.536 36.4009 124.516 39.6971C131.282 42.4728 137.007 46.9834 141.344 52.7084C145.334 58.2599 147.416 64.8523 147.416 71.7917C147.763 78.3841 144.987 84.803 140.129 89.1401C134.925 93.8242 128.332 96.5999 121.567 97.1204V98.1613C131.802 99.2022 139.435 102.325 144.64 107.529C149.845 112.56 152.447 119.673 152.273 126.96C152.447 134.072 150.018 141.012 145.681 146.737C140.823 152.809 134.404 157.493 127.118 160.269C118.097 163.738 108.729 165.3 99.3606 164.953Z" fill="white"/>
</g>
<defs>
<clipPath id="clip0_7_42">
<rect width="200" height="200" fill="white"/>
</clipPath>
</defs>
</svg>
