<svg width="200" height="200" viewBox="0 0 200 200" fill="none" xmlns="http://www.w3.org/2000/svg">
<g clip-path="url(#clip0_7_45)">
<path fill-rule="evenodd" clip-rule="evenodd" d="M99.9186 0C155.085 0 200 44.7518 200 99.9186C200 155.085 155.248 200 100.081 200C44.7518 200 0 155.248 0 100.081C0 73.5557 10.5777 48.0065 29.2921 29.2921C48.0065 10.5777 73.393 0 99.9186 0Z" fill="#009199"/>
<path d="M99.655 164.963C90.6156 165.134 81.7467 163.258 73.56 159.676C66.3967 156.606 60.2567 151.49 55.6517 145.179C51.2172 139.039 49 131.535 49 124.03H82.5995C82.5995 128.123 84.4756 132.046 87.7161 134.605C93.8562 139.21 102.213 139.892 109.036 136.31C111.764 134.775 113.982 132.558 115.517 129.829C117.052 126.759 117.905 123.518 117.734 120.107C117.905 116.696 117.052 113.285 115.517 110.386C113.982 107.657 111.764 105.44 109.036 103.905C106.136 102.37 102.896 101.517 99.655 101.517C96.0734 101.517 92.6623 102.37 89.4217 104.246C86.3517 105.951 83.9639 108.51 82.5995 111.58L52.07 105.61L57.0161 35H143.147V62.8006H85.6695L83.1111 91.1128H83.9639C86.3517 86.8489 89.9334 83.4378 94.3678 81.3912C99.655 78.6623 105.624 77.4684 111.594 77.4684C118.757 77.2978 125.75 79.1739 132.061 82.7556C138.03 86.3373 142.976 91.2834 146.217 97.4234C149.798 104.075 151.504 111.409 151.333 118.913C151.845 135.798 142.294 151.49 126.944 158.823C118.416 163.258 109.036 165.305 99.655 164.963Z" fill="white"/>
</g>
<defs>
<clipPath id="clip0_7_45">
<rect width="200" height="200" fill="white"/>
</clipPath>
</defs>
</svg>
