<svg width="200" height="200" viewBox="0 0 200 200" fill="none" xmlns="http://www.w3.org/2000/svg">
<g clip-path="url(#clip0_7_48)">
<path fill-rule="evenodd" clip-rule="evenodd" d="M99.9186 0C155.085 0 200 44.7518 200 99.9186C200 155.085 155.248 200 100.081 200C44.7518 200 0 155.248 0 100.081C0 73.5557 10.5777 48.0065 29.2921 29.2921C48.0065 10.5777 73.393 0 99.9186 0Z" fill="#009199"/>
<path d="M101.655 164.959C94.4748 164.959 87.4696 163.734 80.8147 161.457C74.3349 159.18 68.3805 155.327 63.3017 150.424C57.8727 144.82 53.8447 138.165 51.3929 130.809C48.2406 121.352 46.8395 111.545 47.0147 101.562C46.8395 92.1055 48.2406 82.8236 50.8675 73.892C53.1442 66.1863 56.8219 59.1811 61.9007 52.8764C66.6292 47.2722 72.4085 42.7189 79.2385 39.5665C86.2437 36.4142 93.9494 34.838 101.655 35.0132C110.061 34.838 118.468 36.5893 126.173 40.4422C133.003 43.7696 138.783 48.6733 143.161 54.978C147.364 60.9324 149.991 67.7624 150.692 74.9428H116.891C116.366 71.4402 114.265 68.463 111.462 66.7117C108.485 64.9604 105.158 64.0847 101.83 64.0847C95.1754 63.7345 88.8707 67.4122 86.0686 73.5417C82.3909 81.4226 80.6396 90.0039 80.9898 98.5853H82.0406C83.6168 94.7324 86.0686 91.405 89.2209 88.6029C92.5484 85.8008 96.4013 83.6993 100.604 82.2982C104.983 80.8972 109.536 80.0215 114.265 80.0215C121.27 79.8464 128.275 81.5977 134.229 85.1003C139.833 88.4278 144.562 93.3314 147.714 99.2858C151.042 105.59 152.618 112.771 152.443 119.776C152.968 136.588 143.511 152.175 128.275 159.355C119.694 163.383 110.762 165.31 101.655 164.959ZM101.48 139.215C104.632 139.215 107.785 138.515 110.587 136.939C113.214 135.363 115.315 133.261 116.891 130.459C119.869 124.68 119.869 117.85 116.891 111.895C115.49 109.268 113.214 106.992 110.587 105.59C107.785 104.014 104.632 103.139 101.48 103.314C99.0282 103.314 96.7515 103.839 94.4748 104.715C92.3733 105.59 90.622 106.816 89.0458 108.393C87.4696 109.969 86.2437 112.07 85.3681 114.172C84.4924 116.449 83.967 118.9 83.967 121.352C83.967 124.505 84.6676 127.832 86.2437 130.634C87.6448 133.261 89.9215 135.538 92.3733 137.114C95.1754 138.34 98.3277 139.215 101.48 139.215Z" fill="white"/>
</g>
<defs>
<clipPath id="clip0_7_48">
<rect width="200" height="200" fill="white"/>
</clipPath>
</defs>
</svg>
