<svg width="650" height="650" viewBox="0 0 650 650" fill="none" xmlns="http://www.w3.org/2000/svg">
<path fill-rule="evenodd" clip-rule="evenodd" d="M324.907 0.000319854C400.102 -0.0211742 472.977 26.0323 531.116 73.721C589.254 121.41 629.056 187.783 643.742 261.53C658.427 335.277 647.085 411.834 611.65 478.156C576.214 544.478 518.878 596.46 449.411 625.245C379.943 654.03 302.644 657.835 230.686 636.014C158.727 614.193 96.561 568.094 54.7819 505.574C13.0028 443.054 -5.80442 367.981 1.56511 293.148C8.93464 218.315 42.0249 148.353 95.1971 95.1841C125.321 64.9595 161.125 40.9899 200.548 24.6545C239.97 8.31908 282.234 -0.0596688 324.907 0.000319854Z" fill="#CA1626"/>
<path d="M325 124C213.973 124 124 213.998 124 325C124 436.002 213.973 526 325 526C436.027 526 526 436.002 526 325C526 213.998 436.027 124 325 124ZM418.138 382.612C422.85 387.323 425.496 393.712 425.496 400.375C425.496 407.038 422.85 413.427 418.138 418.138C413.427 422.85 407.038 425.496 400.375 425.496C393.712 425.496 387.323 422.85 382.612 418.138L325 360.527L267.388 418.138C265.06 420.48 262.293 422.338 259.244 423.605C256.196 424.873 252.927 425.526 249.625 425.526C246.323 425.526 243.054 424.873 240.006 423.605C236.957 422.338 234.19 420.48 231.862 418.138C229.526 415.807 227.674 413.038 226.41 409.99C225.146 406.942 224.495 403.675 224.495 400.375C224.495 397.075 225.146 393.808 226.41 390.76C227.674 387.712 229.526 384.943 231.862 382.612L289.473 325L231.862 267.388C227.15 262.677 224.504 256.288 224.504 249.625C224.504 242.962 227.15 236.573 231.862 231.862C236.573 227.15 242.962 224.504 249.625 224.504C256.288 224.504 262.677 227.15 267.388 231.862L325 289.473L382.612 231.862C387.323 227.15 393.712 224.504 400.375 224.504C407.038 224.504 413.427 227.15 418.138 231.862C422.85 236.573 425.496 242.962 425.496 249.625C425.496 256.288 422.85 262.677 418.138 267.388L360.527 325L418.138 382.612Z" fill="white"/>
</svg>
