<svg width="200" height="200" viewBox="0 0 200 200" fill="none" xmlns="http://www.w3.org/2000/svg">
<g clip-path="url(#clip0_7_63)">
<path fill-rule="evenodd" clip-rule="evenodd" d="M99.9186 0C155.085 0 200 44.7518 200 99.9186C200 155.085 155.248 200 100.081 200C44.7518 200 0 155.248 0 100.081C0 73.5557 10.5777 48.0065 29.2921 29.2921C48.0065 10.5777 73.393 0 99.9186 0Z" fill="#009199"/>
<path d="M89.7615 50V150H62.5755V74.9603H61.9396L40 88.1558V65.1033L64.6423 50H89.7615ZM159.237 50V150H132.051V74.9603H131.574L109.634 88.1558V65.1033L134.277 50H159.237Z" fill="white"/>
</g>
<defs>
<clipPath id="clip0_7_63">
<rect width="200" height="200" fill="white"/>
</clipPath>
</defs>
</svg>
