<svg width="200" height="200" viewBox="0 0 200 200" fill="none" xmlns="http://www.w3.org/2000/svg">
<path d="M99.9609 0C155.234 0 200 44.7656 200 100C200 155.234 155.234 200 100 200C44.7656 200 0 155.234 0 100C0 73.4766 10.5469 48.0469 29.2969 29.2969C47.9687 10.5469 73.3594 0 99.8438 0H99.9609Z" fill="#009199"/>
<path d="M75.26 51.3417V148.658H48.8449V75.6604H48.2998L27 88.4067V65.9748L50.9413 51.3417H75.26ZM133.247 150C125.616 150 118.782 148.658 112.828 146.017C106.916 143.375 102.22 139.686 98.8658 135.073C95.4696 130.419 93.7505 125.052 93.7505 119.015H120.333C120.375 120.901 120.92 122.579 122.052 124.046C123.184 125.514 124.694 126.688 126.665 127.484C128.635 128.323 130.899 128.7 133.415 128.7C135.847 128.7 138.027 128.281 139.872 127.4C141.717 126.52 143.184 125.304 144.233 123.753C145.281 122.201 145.784 120.398 145.742 118.428C145.784 116.457 145.197 114.738 143.939 113.229C142.723 111.677 141.004 110.503 138.824 109.665C136.644 108.784 134.128 108.365 131.277 108.365H121.382V90.1258H131.277C133.918 90.1258 136.224 89.7065 138.237 88.826C140.249 87.9874 141.843 86.8134 142.933 85.2621C144.065 83.7107 144.61 81.9916 144.568 80.021C144.61 78.1342 144.149 76.457 143.184 74.9895C142.22 73.522 140.92 72.3899 139.201 71.5933C137.524 70.7547 135.553 70.3774 133.331 70.3774C130.941 70.3774 128.803 70.7966 126.874 71.6352C124.987 72.5157 123.52 73.6897 122.43 75.1992C121.34 76.7086 120.795 78.4696 120.753 80.3983H95.4696C95.5115 74.4444 97.1467 69.1614 100.375 64.6331C103.646 60.0629 108.09 56.499 113.751 53.8994C119.411 51.2998 125.91 50 133.289 50C140.459 50 146.832 51.2159 152.367 53.6478C157.901 56.0797 162.22 59.434 165.365 63.6688C168.467 67.9455 170.019 72.8092 170.019 78.3019C170.103 83.7526 168.216 88.1971 164.442 91.6771C160.669 95.1572 155.889 97.2117 150.061 97.8407V98.6373C157.901 99.4759 163.813 101.866 167.797 105.807C171.738 109.748 173.709 114.696 173.625 120.65C173.667 126.352 171.948 131.384 168.509 135.828C165.071 140.231 160.291 143.669 154.212 146.184C148.258 148.742 141.214 150 133.247 150Z" fill="white"/>
</svg>
