<svg width="200" height="200" viewBox="0 0 200 200" fill="none" xmlns="http://www.w3.org/2000/svg">
<g clip-path="url(#clip0_7_54)">
<path fill-rule="evenodd" clip-rule="evenodd" d="M99.9186 0C155.085 0 200 44.7518 200 99.9186C200 155.085 155.248 200 100.081 200C44.7518 200 0 155.248 0 100.081C0 73.5557 10.5777 48.0065 29.2921 29.2921C48.0065 10.5777 73.393 0 99.9186 0Z" fill="#009199"/>
<path d="M100.123 164.987C90.7376 165.164 81.5297 163.57 72.853 160.206C65.5929 157.55 59.0411 153.123 53.9059 147.279C49.4791 142.144 47 135.592 47 128.863C47 123.728 48.2395 118.77 50.8957 114.52C53.5518 110.093 57.0933 106.552 61.5202 103.719C66.1241 100.885 71.0823 98.9376 76.3945 98.2293V97.1668C69.4886 96.1044 63.2909 92.7399 58.687 87.6047C54.2601 82.6466 51.781 76.0948 51.9581 69.366C51.9581 62.9912 54.083 56.6165 58.3328 51.6584C62.9368 46.1691 68.9574 41.9193 75.5092 39.4402C83.4775 36.4299 91.9772 34.8362 100.477 35.0133C108.976 34.8362 117.476 36.4299 125.444 39.4402C132.173 41.9193 138.017 46.1691 142.621 51.6584C146.693 56.6165 148.995 62.8142 148.995 69.1889C149.173 75.9178 146.693 82.6466 141.912 87.6047C137.308 92.7399 130.934 96.1044 124.028 97.1668V98.2293C129.34 98.9376 134.298 100.885 138.902 103.719C143.152 106.375 146.871 110.093 149.527 114.52C152.183 118.77 153.599 123.728 153.422 128.863C153.422 135.592 150.943 142.144 146.516 147.279C141.381 153.123 134.829 157.55 127.569 160.206C118.716 163.393 109.508 164.987 100.123 164.987ZM100.123 141.259C103.133 141.259 106.143 140.727 108.799 139.311C111.278 138.071 113.226 136.123 114.82 133.821C116.237 131.519 117.122 128.686 116.945 125.853C116.945 123.02 116.237 120.364 114.82 118.062C113.403 115.76 111.278 113.989 108.799 112.749C103.31 110.093 96.9353 110.093 91.623 112.749C89.144 113.989 87.0191 115.76 85.6025 118.062C84.1859 120.364 83.3005 123.02 83.4775 125.853C83.4775 128.686 84.1859 131.519 85.6025 133.999C87.0191 136.3 89.144 138.248 91.623 139.488C94.2792 140.904 97.2894 141.613 100.3 141.436L100.123 141.259ZM100.123 87.0735C102.779 87.0735 105.435 86.5423 107.737 85.3028C112.164 83.0008 114.997 78.3968 114.997 73.2616C114.997 70.7826 114.466 68.3035 113.049 66.1786C111.81 64.0537 109.862 62.46 107.737 61.3976C102.956 59.0956 97.2894 59.0956 92.5084 61.3976C88.0815 63.5225 85.2483 68.3035 85.2483 73.2616C85.2483 75.7407 85.9566 78.2197 87.1961 80.3446C88.4357 82.4696 90.3835 84.0632 92.5084 85.3028C94.9875 86.5423 97.4665 87.0735 100.123 87.0735Z" fill="white"/>
</g>
<defs>
<clipPath id="clip0_7_54">
<rect width="200" height="200" fill="white"/>
</clipPath>
</defs>
</svg>
