<svg width="200" height="200" viewBox="0 0 200 200" fill="none" xmlns="http://www.w3.org/2000/svg">
<g clip-path="url(#clip0_7_57)">
<path fill-rule="evenodd" clip-rule="evenodd" d="M99.9186 0C155.085 0 200 44.7518 200 99.9186C200 155.085 155.248 200 100.081 200C44.7518 200 0 155.248 0 100.081C0 73.5557 10.5777 48.0065 29.2921 29.2921C48.0065 10.5777 73.393 0 99.9186 0Z" fill="#009199"/>
<path d="M97.7559 35C104.929 35 111.927 36.0497 118.575 38.499C125.048 40.7733 130.996 44.6222 136.07 49.5207C141.493 55.1191 145.517 61.7671 147.966 69.115C151.115 78.5622 152.515 88.3593 152.34 98.3314C152.515 107.779 151.115 117.051 148.316 126.148C146.042 133.846 142.368 141.019 137.294 147.142C132.571 152.74 126.797 157.289 119.974 160.438C112.801 163.587 105.104 165.162 97.406 164.987C88.8335 165.162 80.436 163.237 72.9132 159.563C66.0902 156.239 60.3169 151.341 56.1181 145.218C51.9194 139.269 49.4701 132.271 48.7703 125.099H82.3604C82.8853 128.423 84.9847 131.572 87.7838 133.321C90.758 135.071 94.082 135.945 97.406 135.77C104.054 136.12 110.352 132.446 113.151 126.323C116.825 118.625 118.575 110.053 118.225 101.48H117.525C115.951 105.329 113.501 108.653 110.177 111.453C106.853 114.252 103.004 116.351 98.8056 117.751C94.4319 119.325 89.7083 120.025 84.9847 120.025C77.9867 120.2 71.1637 118.276 65.2155 114.777C59.4421 111.453 54.8935 106.554 51.7444 100.606C48.4204 94.3076 46.8458 87.1347 47.0208 80.1368C46.4959 63.3417 55.9432 47.9462 71.1637 40.7733C79.7362 36.9244 88.8335 35 97.7559 35ZM98.1058 60.8924C94.9567 60.8924 91.8077 61.5922 89.0085 63.1667C86.3842 64.7413 84.2849 66.8407 82.7103 69.6398C79.7362 75.4131 79.7362 82.2361 82.7103 88.0094C84.1099 90.6337 86.3842 92.908 89.0085 94.4825C91.8077 96.0571 94.9567 96.9318 98.1058 96.7569C100.555 96.7569 102.829 96.232 105.104 95.3573C107.203 94.4825 109.128 93.2579 110.527 91.5084C112.102 89.9339 113.326 88.0095 114.201 85.9101C115.076 83.6357 115.601 81.1864 115.601 78.7372C115.601 75.5881 114.901 72.2641 113.326 69.4649C111.927 66.8407 109.652 64.5663 107.028 62.9918C104.229 61.5922 101.255 60.8924 98.1058 60.8924Z" fill="white"/>
</g>
<defs>
<clipPath id="clip0_7_57">
<rect width="200" height="200" fill="white"/>
</clipPath>
</defs>
</svg>
